<svg width="22" height="18" viewBox="0 0 22 18" fill="none" xmlns="http://www.w3.org/2000/svg">
<path fill-rule="evenodd" clip-rule="evenodd" d="M8.69435 0.158203H12.8064C14.6444 0.158203 16.1004 0.158203 17.2394 0.311203C18.4114 0.469203 19.3603 0.801203 20.1094 1.5492C20.8573 2.2982 21.1894 3.2472 21.3474 4.4192C21.4374 5.0922 21.4744 5.8752 21.4894 6.7822C21.5024 6.85821 21.5038 6.93578 21.4934 7.0122C21.5004 7.5782 21.5004 8.1902 21.5004 8.8522V8.9642C21.5004 10.8022 21.5004 12.2582 21.3474 13.3972C21.1894 14.5692 20.8573 15.5182 20.1094 16.2672C19.3603 17.0152 18.4114 17.3472 17.2394 17.5052C16.0994 17.6582 14.6444 17.6582 12.8064 17.6582H8.69435C6.85635 17.6582 5.40035 17.6582 4.26135 17.5052C3.08935 17.3472 2.14035 17.0152 1.39135 16.2672C0.643351 15.5182 0.311351 14.5692 0.153351 13.3972C0.000351295 12.2572 0.000351292 10.8022 0.000351292 8.9642V8.8522C0.000351292 8.1902 0.000351261 7.5782 0.00735126 7.0122C-0.00337042 6.93583 -0.00235872 6.85827 0.0103513 6.7822C0.0263513 5.8752 0.0633513 5.0922 0.153351 4.4192C0.311351 3.2472 0.643351 2.2982 1.39135 1.5492C2.14035 0.801203 3.08935 0.469203 4.26135 0.311203C5.40135 0.158203 6.85635 0.158203 8.69435 0.158203ZM1.50235 7.6582C1.50035 8.0462 1.50035 8.4622 1.50035 8.9082C1.50035 10.8152 1.50235 12.1692 1.64035 13.1982C1.77535 14.2032 2.02935 14.7832 2.45235 15.2062C2.87535 15.6292 3.45535 15.8832 4.46135 16.0182C5.48935 16.1562 6.84335 16.1582 8.75035 16.1582H12.7504C14.6574 16.1582 16.0124 16.1562 17.0404 16.0182C18.0454 15.8832 18.6254 15.6292 19.0484 15.2062C19.4714 14.7832 19.7254 14.2032 19.8604 13.1972C19.9984 12.1692 20.0004 10.8152 20.0004 8.9082C20.0004 8.4622 20.0004 8.0462 19.9984 7.6582H1.50235ZM19.9744 6.1582H1.52635C1.54635 5.5712 1.58035 5.0642 1.64035 4.6182C1.77535 3.6132 2.02935 3.0332 2.45235 2.6102C2.87535 2.1872 3.45535 1.9332 4.46135 1.7982C5.48935 1.6602 6.84335 1.6582 8.75035 1.6582H12.7504C14.6574 1.6582 16.0124 1.6602 17.0404 1.7982C18.0454 1.9332 18.6254 2.1872 19.0484 2.6102C19.4714 3.0332 19.7254 3.6132 19.8604 4.6192C19.9204 5.0642 19.9544 5.5712 19.9744 6.1582ZM14.7054 9.1582H14.7954C15.2284 9.1582 15.6254 9.1582 15.9474 9.2012C16.3034 9.2492 16.6784 9.3612 16.9874 9.6712C17.2973 9.9802 17.4094 10.3552 17.4574 10.7112C17.5004 11.0342 17.5004 11.4312 17.5004 11.8632V11.9532C17.5004 12.3862 17.5004 12.7832 17.4574 13.1052C17.4094 13.4612 17.2973 13.8362 16.9874 14.1452C16.6784 14.4552 16.3034 14.5672 15.9474 14.6152C15.6244 14.6582 15.2274 14.6582 14.7954 14.6582H14.7054C14.2724 14.6582 13.8754 14.6582 13.5534 14.6152C13.1974 14.5672 12.8224 14.4552 12.5134 14.1452C12.2034 13.8362 12.0914 13.4612 12.0434 13.1052C12.0004 12.7822 12.0004 12.3852 12.0004 11.9532V11.8632C12.0004 11.4302 12.0004 11.0332 12.0434 10.7112C12.0914 10.3552 12.2034 9.9802 12.5134 9.6712C12.8224 9.3612 13.1974 9.2492 13.5534 9.2012C13.8764 9.1582 14.2734 9.1582 14.7054 9.1582ZM13.5754 10.7302L13.5734 10.7312L13.5724 10.7342C13.5507 10.7911 13.5366 10.8506 13.5304 10.9112C13.5024 11.1212 13.5004 11.4152 13.5004 11.9082C13.5004 12.4012 13.5024 12.6952 13.5304 12.9052C13.5366 12.9658 13.5507 13.0253 13.5724 13.0822L13.5734 13.0852L13.5764 13.0862C13.6333 13.1078 13.6928 13.1219 13.7534 13.1282C13.9634 13.1562 14.2574 13.1582 14.7504 13.1582C15.2434 13.1582 15.5374 13.1562 15.7474 13.1282C15.8079 13.1219 15.8674 13.1078 15.9244 13.0862L15.9274 13.0852L15.9284 13.0822C15.95 13.0253 15.9641 12.9658 15.9704 12.9052C15.9984 12.6952 16.0004 12.4012 16.0004 11.9082C16.0004 11.4152 15.9984 11.1212 15.9704 10.9112C15.9641 10.8506 15.95 10.7911 15.9284 10.7342L15.9274 10.7312L15.9244 10.7302C15.8674 10.7086 15.8079 10.6945 15.7474 10.6882C15.5374 10.6602 15.2434 10.6582 14.7504 10.6582C14.2574 10.6582 13.9634 10.6602 13.7534 10.6882C13.6928 10.6945 13.6333 10.7086 13.5764 10.7302H13.5754ZM4.00035 10.4082C4.00035 10.2093 4.07937 10.0185 4.22002 9.87787C4.36067 9.73722 4.55144 9.6582 4.75035 9.6582H6.75035C6.94926 9.6582 7.14003 9.73722 7.28068 9.87787C7.42133 10.0185 7.50035 10.2093 7.50035 10.4082C7.50035 10.6071 7.42133 10.7979 7.28068 10.9385C7.14003 11.0792 6.94926 11.1582 6.75035 11.1582H4.75035C4.55144 11.1582 4.36067 11.0792 4.22002 10.9385C4.07937 10.7979 4.00035 10.6071 4.00035 10.4082ZM4.00035 13.4082C4.00035 13.2093 4.07937 13.0185 4.22002 12.8779C4.36067 12.7372 4.55144 12.6582 4.75035 12.6582H8.75035C8.94926 12.6582 9.14003 12.7372 9.28068 12.8779C9.42133 13.0185 9.50035 13.2093 9.50035 13.4082C9.50035 13.6071 9.42133 13.7979 9.28068 13.9385C9.14003 14.0792 8.94926 14.1582 8.75035 14.1582H4.75035C4.55144 14.1582 4.36067 14.0792 4.22002 13.9385C4.07937 13.7979 4.00035 13.6071 4.00035 13.4082Z" fill="#1A535C"/>
</svg>
