<svg width="236" height="236" viewBox="0 0 236 236" fill="none" xmlns="http://www.w3.org/2000/svg">
<circle opacity="0.6" cx="147.5" cy="99.5" r="84.5" fill="#EAF2F4"/>
<circle opacity="0.3" cx="47.5" cy="171.5" r="32.5" fill="url(#paint0_linear_3027_11895)"/>
<path d="M63.4375 187.625C62.1943 187.625 61.002 187.131 60.1229 186.252C59.2439 185.373 58.75 184.181 58.75 182.938C58.75 181.694 59.2439 180.502 60.1229 179.623C61.002 178.744 62.1943 178.25 63.4375 178.25H72.8125V168.875C72.8106 160.915 75.0605 153.118 79.3023 146.382C83.5442 139.647 89.6049 134.249 96.7844 130.812C99.5031 129.509 100.938 127.278 100.938 125.281V118.719C100.938 116.722 99.4938 114.491 96.7844 113.188C89.6049 109.751 83.5442 104.353 79.3023 97.6177C75.0605 90.8825 72.8106 83.0847 72.8125 75.125V65.75H63.4375C62.1943 65.75 61.002 65.2561 60.1229 64.3771C59.2439 63.498 58.75 62.3057 58.75 61.0625C58.75 59.8193 59.2439 58.627 60.1229 57.7479C61.002 56.8689 62.1943 56.375 63.4375 56.375H166.562C167.806 56.375 168.998 56.8689 169.877 57.7479C170.756 58.627 171.25 59.8193 171.25 61.0625C171.25 62.3057 170.756 63.498 169.877 64.3771C168.998 65.2561 167.806 65.75 166.562 65.75H157.188V75.125C157.189 83.0847 154.94 90.8825 150.698 97.6177C146.456 104.353 140.395 109.751 133.216 113.188C130.497 114.491 129.062 116.722 129.062 118.719V125.281C129.062 127.278 130.506 129.509 133.216 130.812C140.395 134.249 146.456 139.647 150.698 146.382C154.94 153.118 157.189 160.915 157.188 168.875V178.25H166.562C167.806 178.25 168.998 178.744 169.877 179.623C170.756 180.502 171.25 181.694 171.25 182.938C171.25 184.181 170.756 185.373 169.877 186.252C168.998 187.131 167.806 187.625 166.562 187.625H63.4375ZM82.1875 65.75V75.125C82.1875 80.1594 83.3125 84.9219 85.3469 89.1875H144.653C146.678 84.9219 147.812 80.1594 147.812 75.125V65.75H82.1875ZM110.312 125.281C110.312 131.853 105.831 136.869 100.834 139.269C95.2496 141.942 90.5351 146.14 87.2355 151.379C83.9359 156.618 82.1858 162.684 82.1875 168.875C82.1875 168.875 90.3062 156.697 110.312 155V125.281ZM119.688 125.281V155C139.694 156.697 147.812 168.875 147.812 168.875C147.814 162.684 146.064 156.618 142.765 151.379C139.465 146.14 134.75 141.942 129.166 139.269C124.169 136.869 119.688 131.862 119.688 125.291V125.281Z" fill="#48757D"/>
<defs>
<linearGradient id="paint0_linear_3027_11895" x1="47.5" y1="139" x2="47.5" y2="204" gradientUnits="userSpaceOnUse">
<stop stop-color="#EAF2F4"/>
<stop offset="0.520833" stop-color="#1A535C"/>
<stop offset="1" stop-color="#EAF2F4"/>
</linearGradient>
</defs>
</svg>
