<svg width="84" height="76" viewBox="0 0 84 76" fill="none" xmlns="http://www.w3.org/2000/svg">
<g filter="url(#filter0_dd_3380_5467)">
<path d="M34.7739 6.2207H27.3155H22.7576H17.5781H16.9566C15.4028 6.2207 13.9525 6.75693 12.7094 7.72213C11.052 9.00907 10.1197 10.9395 10.0161 13.0844C9.80896 18.5539 10.1197 22.8437 10.8448 24.5596C11.2592 25.7393 11.8807 26.7045 12.6059 27.6697C14.2633 29.8146 16.4386 31.4233 18.8212 32.174C20.4786 32.603 21.8253 32.7102 23.8971 32.7102H25.8652H34.1524H34.7739L40.2641 38.3942C40.3677 38.5015 40.5749 38.6087 40.7821 38.6087C41.1964 38.6087 41.6108 38.287 41.6108 37.7508V13.2989C41.6108 8.90183 38.0887 6.2207 34.7739 6.2207ZM33.9452 21.1272C33.2201 22.3068 32.1842 23.4865 30.8375 24.6662C29.4909 25.8459 28.0406 26.8111 26.3832 27.7763C26.176 27.8836 25.9688 27.8836 25.8652 27.8836C25.6581 27.8836 25.5545 27.8836 25.3473 27.7763C23.3791 26.5967 21.9289 25.5242 20.5822 24.3445C19.6499 23.4865 18.614 22.5213 17.7853 21.1272C17.0602 19.9475 16.6458 18.6605 16.5422 17.3736C16.5422 15.9794 16.9566 14.5852 17.7853 13.4055C18.614 12.3331 19.7535 11.6896 21.2037 11.4751C22.4468 11.3679 23.5863 11.5823 24.6222 12.2258C25.1401 12.5475 25.5545 12.9765 25.8652 13.4055C26.7975 12.1186 28.1442 11.4751 29.698 11.4751H29.9052C31.4591 11.4751 32.7021 12.0113 33.738 13.191C34.3595 13.9417 34.8775 14.9069 35.0847 16.0866C35.3954 17.8026 34.9811 19.5185 33.9452 21.1272Z" fill="#EF4444"/>
</g>
<path d="M72.9978 48.1531C73.205 46.6517 72.5835 45.1502 71.444 44.185L71.2368 44.0778C71.1332 44.0778 71.1332 43.9705 71.1332 43.9705L71.0297 43.8633C71.0297 43.8633 70.9261 43.8633 70.9261 43.7561L70.7189 43.6488C70.6153 43.6488 70.5117 43.5416 70.4081 43.5416C68.4399 42.8981 66.3682 43.2198 64.4 43.3271C63.882 43.3271 59.7385 43.3271 59.6349 43.7561L60.2564 41.5039C60.5672 40.3242 60.9815 39.0373 61.2923 37.7503C61.8102 35.9272 62.0174 34.533 61.8102 33.1388C61.6031 31.3156 60.6708 29.707 59.1169 28.7417C58.2882 28.2055 57.3559 27.8838 56.4236 27.8838H56.2164C55.2841 27.8838 54.7662 28.42 54.6626 29.3852C54.559 30.5649 54.4554 31.6374 54.2483 32.7098C53.9375 34.533 53.5231 36.0344 52.798 37.3214C52.3837 38.0721 51.9693 38.7155 51.3478 39.359C50.6226 40.217 49.7939 41.0749 48.9652 42.0401L46.997 44.3995C46.5827 44.9357 46.0647 45.472 45.5468 46.0082C45.4432 46.1154 45.3396 46.2227 45.1324 46.3299C44.8217 46.6517 44.4073 46.8662 43.9929 47.0806C43.7858 47.1879 43.475 47.2951 42.9571 47.4024C41.2996 47.9386 40.2637 48.3676 40.2637 49.44C40.2637 49.9763 40.1602 50.5125 40.1602 50.9415V51.2632V52.5501V68.7435H42.8535C43.7858 68.8508 44.7181 69.0653 45.8575 69.2798L46.3755 69.387C48.758 69.816 50.9334 70.1377 53.1088 70.4595C58.4954 71.1029 64.9179 72.7116 68.8543 67.6711C70.4081 65.6334 70.6153 62.7378 70.9261 60.1639C71.7548 56.3031 72.4799 52.2278 72.9978 48.1525V48.1531Z" fill="#D1DDDE"/>
<path d="M35.6039 70.7829H28.4563C27.524 70.7829 26.7988 70.0322 26.7988 69.067V47.0812C26.7988 46.1159 27.524 45.3652 28.4563 45.3652H35.6039C36.5362 45.3652 37.2613 46.1159 37.2613 47.0812V68.9591C37.2613 70.0316 36.5362 70.7823 35.6039 70.7823V70.7829Z" fill="#D1DDDE"/>
<defs>
<filter id="filter0_dd_3380_5467" x="3.95312" y="4.2207" width="43.6582" height="44.3877" filterUnits="userSpaceOnUse" color-interpolation-filters="sRGB">
<feFlood flood-opacity="0" result="BackgroundImageFix"/>
<feColorMatrix in="SourceAlpha" type="matrix" values="0 0 0 0 0 0 0 0 0 0 0 0 0 0 0 0 0 0 127 0" result="hardAlpha"/>
<feOffset dy="4"/>
<feGaussianBlur stdDeviation="3"/>
<feColorMatrix type="matrix" values="0 0 0 0 0.121569 0 0 0 0 0.160784 0 0 0 0 0.215686 0 0 0 0.2 0"/>
<feBlend mode="normal" in2="BackgroundImageFix" result="effect1_dropShadow_3380_5467"/>
<feColorMatrix in="SourceAlpha" type="matrix" values="0 0 0 0 0 0 0 0 0 0 0 0 0 0 0 0 0 0 127 0" result="hardAlpha"/>
<feOffset dy="2"/>
<feGaussianBlur stdDeviation="2"/>
<feColorMatrix type="matrix" values="0 0 0 0 0.121569 0 0 0 0 0.160784 0 0 0 0 0.215686 0 0 0 0.12 0"/>
<feBlend mode="normal" in2="effect1_dropShadow_3380_5467" result="effect2_dropShadow_3380_5467"/>
<feBlend mode="normal" in="SourceGraphic" in2="effect2_dropShadow_3380_5467" result="shape"/>
</filter>
</defs>
</svg>
