<svg width="236" height="236" viewBox="0 0 236 236" fill="none" xmlns="http://www.w3.org/2000/svg">
<circle opacity="0.6" cx="147.5" cy="99.5" r="84.5" fill="#EAF2F4"/>
<circle opacity="0.3" cx="47.5" cy="171.5" r="32.5" fill="url(#paint0_linear_1873_7614)"/>
<g filter="url(#filter0_dd_1873_7614)">
<path d="M197.818 47.2002H38.5178C36.171 47.2002 33.9188 48.1326 32.2598 49.792C30.6007 51.4514 29.668 53.7035 29.668 56.05V179.95C29.668 182.297 30.6004 184.549 32.2598 186.208C33.9191 187.867 36.1713 188.8 38.5178 188.8H197.818C200.165 188.8 202.417 187.867 204.076 186.208C205.735 184.549 206.668 182.297 206.668 179.95V56.05C206.668 53.7032 205.735 51.4511 204.076 49.792C202.416 48.1329 200.164 47.2002 197.818 47.2002ZM200.768 179.95C200.768 180.732 200.457 181.483 199.904 182.036C199.351 182.589 198.6 182.9 197.818 182.9H38.5178C36.8887 182.9 35.5678 181.579 35.5678 179.95V56.0502C35.5678 54.4211 36.8887 53.1002 38.5178 53.1002H197.818C198.6 53.1002 199.351 53.411 199.904 53.9641C200.457 54.5172 200.768 55.2679 200.768 56.0502V179.95Z" fill="#1A535C"/>
<path d="M180.118 64.9004H56.218C53.8712 64.9004 51.619 65.8328 49.9599 67.4922C48.3009 69.1516 47.3682 71.4037 47.3682 73.7502V144.55C47.3682 146.897 48.3006 149.149 49.9599 150.808C51.6193 152.467 53.8715 153.4 56.218 153.4H180.118C182.465 153.4 184.717 152.468 186.376 150.808C188.035 149.149 188.968 146.897 188.968 144.55V73.7502C188.968 71.4034 188.035 69.1513 186.376 67.4922C184.717 65.8331 182.465 64.9004 180.118 64.9004ZM183.068 144.55C183.068 145.333 182.757 146.083 182.204 146.636C181.651 147.19 180.9 147.5 180.118 147.5H56.218C54.5889 147.5 53.268 146.179 53.268 144.55V118H94.568C95.748 118 96.8148 117.297 97.2796 116.213L102.389 104.292L109.377 139.24C109.653 140.589 110.823 141.569 112.2 141.6H112.268C113.621 141.6 114.801 140.68 115.13 139.367L127.018 91.8129L135.957 127.567V127.566C136.27 128.819 137.363 129.724 138.654 129.797C139.939 129.856 141.118 129.088 141.583 127.887L148.054 110.624L150.928 116.374C151.429 117.371 152.451 118.001 153.568 117.999H183.068L183.068 144.55ZM183.068 112.1H155.391L150.304 101.932H150.306C149.79 100.875 148.689 100.231 147.515 100.3C146.343 100.361 145.32 101.11 144.906 102.209L139.384 116.938L129.88 78.9351C129.551 77.6221 128.371 76.7015 127.018 76.7015C125.665 76.7015 124.485 77.6221 124.156 78.9351L112.587 125.208L106.309 93.8115C106.059 92.5433 105.01 91.5859 103.724 91.4502C102.438 91.3146 101.214 92.0336 100.704 93.2215L92.6243 112.102H53.2696V73.7515C53.2696 72.1225 54.5905 70.8015 56.2196 70.8015H180.12C180.902 70.8015 181.653 71.1123 182.206 71.6655C182.759 72.2186 183.07 72.9693 183.07 73.7515L183.068 112.1Z" fill="#1A535C"/>
<path d="M79.8176 159.3C77.4708 159.3 75.2186 160.232 73.5596 161.892C71.9005 163.551 70.9678 165.803 70.9678 168.15C70.9678 170.496 71.9002 172.749 73.5596 174.408C75.2189 176.067 77.4711 176.999 79.8176 176.999C82.1641 176.999 84.4166 176.067 86.0756 174.408C87.7347 172.748 88.6674 170.496 88.6674 168.15C88.6674 165.803 87.735 163.551 86.0756 161.892C84.4163 160.233 82.1641 159.3 79.8176 159.3ZM79.8176 171.1C78.6244 171.1 77.5485 170.381 77.0928 169.278C76.6358 168.176 76.8874 166.908 77.7315 166.064C78.5757 165.22 79.8439 164.968 80.9462 165.425C82.0485 165.881 82.7676 166.957 82.7676 168.15C82.7676 168.932 82.4568 169.683 81.9037 170.236C81.3505 170.789 80.5999 171.1 79.8176 171.1Z" fill="#1A535C"/>
<path d="M56.218 159.3C53.8712 159.3 51.619 160.232 49.9599 161.892C48.3009 163.551 47.3682 165.803 47.3682 168.15C47.3682 170.496 48.3006 172.749 49.9599 174.408C51.6193 176.067 53.8715 176.999 56.218 176.999C58.5645 176.999 60.817 176.067 62.476 174.408C64.1351 172.748 65.0678 170.496 65.0678 168.15C65.0678 165.803 64.1354 163.551 62.476 161.892C60.8167 160.233 58.5645 159.3 56.218 159.3ZM56.218 171.1C55.0248 171.1 53.9489 170.381 53.4932 169.278C53.0362 168.176 53.2878 166.908 54.1319 166.064C54.9761 165.22 56.2443 164.968 57.3466 165.425C58.4489 165.881 59.168 166.957 59.168 168.15C59.168 168.932 58.8572 169.683 58.3041 170.236C57.7509 170.789 57.0003 171.1 56.218 171.1Z" fill="#1A535C"/>
<path d="M177.168 165.2H188.968V171.1H177.168V165.2Z" fill="#1A535C"/>
<path d="M159.468 165.2H171.268V171.1H159.468V165.2Z" fill="#1A535C"/>
<path d="M141.768 165.2H153.568V171.1H141.768V165.2Z" fill="#1A535C"/>
<path d="M127.018 159.3H109.318C107.689 159.3 106.368 160.621 106.368 162.25V174.05C106.368 174.832 106.679 175.583 107.232 176.136C107.785 176.689 108.536 177 109.318 177H127.018C127.8 177 128.551 176.689 129.104 176.136C129.657 175.583 129.968 174.832 129.968 174.05V162.25C129.968 161.468 129.657 160.717 129.104 160.164C128.551 159.611 127.8 159.3 127.018 159.3ZM124.068 171.1H112.268V165.2H124.068V171.1Z" fill="#1A535C"/>
<path d="M159.468 76.7002H177.168V82.6002H159.468V76.7002Z" fill="#1A535C"/>
<path d="M159.468 88.5H177.168V94.4H159.468V88.5Z" fill="#1A535C"/>
<path d="M159.468 100.3H177.168V106.2H159.468V100.3Z" fill="#1A535C"/>
</g>
<g filter="url(#filter1_dd_1873_7614)">
<path d="M78.8497 79.3959C80.5736 77.6641 82.9177 76.6935 85.3606 76.7001C87.8022 76.7001 90.1452 77.6696 91.8717 79.3961C93.5983 81.1236 94.5689 83.4654 94.5689 85.907C94.5689 88.3486 93.5983 90.6914 91.8717 92.4179L78.9538 105.336C77.8014 106.487 75.934 106.487 74.7816 105.336L61.8637 92.4179C59.5379 90.092 58.6292 86.701 59.4813 83.5244C60.3319 80.3468 62.8143 77.8643 65.9922 77.0135C69.1685 76.1615 72.5595 77.07 74.8852 79.3954C74.8855 79.3957 74.8857 79.3962 74.8857 79.3966C74.8857 79.397 74.8858 79.3974 74.8861 79.3977L75.4661 79.9776C76.2401 80.7517 77.4951 80.7514 78.2689 79.9772L78.8497 79.3959Z" fill="#EF4444"/>
</g>
<defs>
<filter id="filter0_dd_1873_7614" x="23.668" y="45.2002" width="189" height="153.6" filterUnits="userSpaceOnUse" color-interpolation-filters="sRGB">
<feFlood flood-opacity="0" result="BackgroundImageFix"/>
<feColorMatrix in="SourceAlpha" type="matrix" values="0 0 0 0 0 0 0 0 0 0 0 0 0 0 0 0 0 0 127 0" result="hardAlpha"/>
<feOffset dy="4"/>
<feGaussianBlur stdDeviation="3"/>
<feColorMatrix type="matrix" values="0 0 0 0 0.121569 0 0 0 0 0.160784 0 0 0 0 0.215686 0 0 0 0.1 0"/>
<feBlend mode="normal" in2="BackgroundImageFix" result="effect1_dropShadow_1873_7614"/>
<feColorMatrix in="SourceAlpha" type="matrix" values="0 0 0 0 0 0 0 0 0 0 0 0 0 0 0 0 0 0 127 0" result="hardAlpha"/>
<feOffset dy="2"/>
<feGaussianBlur stdDeviation="2"/>
<feColorMatrix type="matrix" values="0 0 0 0 0.121569 0 0 0 0 0.160784 0 0 0 0 0.215686 0 0 0 0.06 0"/>
<feBlend mode="normal" in2="effect1_dropShadow_1873_7614" result="effect2_dropShadow_1873_7614"/>
<feBlend mode="normal" in="SourceGraphic" in2="effect2_dropShadow_1873_7614" result="shape"/>
</filter>
<filter id="filter1_dd_1873_7614" x="53.167" y="74.6992" width="47.4023" height="41.5" filterUnits="userSpaceOnUse" color-interpolation-filters="sRGB">
<feFlood flood-opacity="0" result="BackgroundImageFix"/>
<feColorMatrix in="SourceAlpha" type="matrix" values="0 0 0 0 0 0 0 0 0 0 0 0 0 0 0 0 0 0 127 0" result="hardAlpha"/>
<feOffset dy="4"/>
<feGaussianBlur stdDeviation="3"/>
<feColorMatrix type="matrix" values="0 0 0 0 0.121569 0 0 0 0 0.160784 0 0 0 0 0.215686 0 0 0 0.1 0"/>
<feBlend mode="normal" in2="BackgroundImageFix" result="effect1_dropShadow_1873_7614"/>
<feColorMatrix in="SourceAlpha" type="matrix" values="0 0 0 0 0 0 0 0 0 0 0 0 0 0 0 0 0 0 127 0" result="hardAlpha"/>
<feOffset dy="2"/>
<feGaussianBlur stdDeviation="2"/>
<feColorMatrix type="matrix" values="0 0 0 0 0.121569 0 0 0 0 0.160784 0 0 0 0 0.215686 0 0 0 0.06 0"/>
<feBlend mode="normal" in2="effect1_dropShadow_1873_7614" result="effect2_dropShadow_1873_7614"/>
<feBlend mode="normal" in="SourceGraphic" in2="effect2_dropShadow_1873_7614" result="shape"/>
</filter>
<linearGradient id="paint0_linear_1873_7614" x1="47.5" y1="139" x2="47.5" y2="204" gradientUnits="userSpaceOnUse">
<stop stop-color="#EAF2F4"/>
<stop offset="0.520833" stop-color="#1A535C"/>
<stop offset="1" stop-color="#EAF2F4"/>
</linearGradient>
</defs>
</svg>
