<svg width="84" height="79" viewBox="0 0 84 79" fill="none" xmlns="http://www.w3.org/2000/svg">
<path d="M17.3861 35.5734C17.9573 34.1695 19.2463 33.18 20.7157 32.9138L20.9488 32.9245C21.0385 32.9763 21.0921 32.8835 21.0921 32.8835L21.2355 32.8424C21.2355 32.8424 21.3252 32.8942 21.3788 32.8013L21.6118 32.812C21.7015 32.8638 21.8449 32.8227 21.9346 32.8745C23.9608 33.3014 25.5942 34.6159 27.245 35.6928C27.6936 35.9518 31.282 38.0236 31.1572 38.4469L31.7451 36.1857C32.0658 35.0087 32.3504 33.687 32.7247 32.4171C33.1878 30.5792 33.7054 29.2682 34.582 28.1644C35.673 26.6891 37.2847 25.7621 39.113 25.7031C40.0988 25.6531 41.067 25.8406 41.8744 26.3067L42.0538 26.4103C42.8612 26.8765 43.0417 27.5998 42.6488 28.4875C42.1486 29.561 41.7021 30.5415 41.3453 31.5739C40.7029 33.3082 40.311 34.8156 40.2955 36.2927C40.279 37.15 40.3161 37.9145 40.5326 38.7825C40.7316 39.8881 41.0203 41.0455 41.2554 42.2957L41.7802 45.3231C41.8709 45.9946 42.0514 46.718 42.2318 47.4414C42.2679 47.586 42.304 47.7307 42.4298 47.9272C42.5381 48.3612 42.7897 48.7541 43.0413 49.147C43.1671 49.3435 43.3826 49.5918 43.7775 49.9436C44.9448 51.2367 45.6274 52.1262 45.0911 53.0549C44.823 53.5193 44.6446 54.0355 44.4301 54.407L44.2693 54.6856L43.6258 55.8002L35.5291 69.824L33.1966 68.4774C32.3356 68.1041 31.421 67.8237 30.3269 67.4397L29.8247 67.2736C27.5469 66.4539 25.5021 65.6448 23.4573 64.8358C18.4706 62.6997 12.1042 60.8816 11.2155 54.5482C10.8887 52.0066 12.157 49.3954 13.1748 47.0109C14.3876 43.253 15.7973 39.3611 17.3864 35.5728L17.3861 35.5734Z" fill="#D1DDDE"/>
<path d="M38.4568 73.8686L44.6468 77.4424C45.4542 77.9086 46.4575 77.621 46.9401 76.7851L57.9331 57.7448C58.4157 56.9089 58.163 55.8962 57.3556 55.4301L51.1656 51.8563C50.3582 51.3901 49.3549 51.6777 48.8723 52.5136L37.9333 71.4605C37.3971 72.3892 37.6497 73.4019 38.4571 73.8681L38.4568 73.8686Z" fill="#D1DDDE"/>
<g opacity="0.2">
<path fill-rule="evenodd" clip-rule="evenodd" d="M49.6624 18.4529C49.2063 18.738 48.8302 19.1344 48.5694 19.6049C48.3087 20.0753 48.1719 20.6044 48.1719 21.1423V33.6567C48.1719 34.4979 48.506 35.3045 49.1008 35.8993C49.6955 36.494 50.5022 36.8282 51.3433 36.8282H70.3719C71.213 36.8282 72.0197 36.494 72.6144 35.8993C73.2092 35.3045 73.5433 34.4979 73.5433 33.6567V21.1423C73.5433 20.6044 73.4065 20.0753 73.1457 19.6049C72.885 19.1344 72.5089 18.738 72.0527 18.4529L62.5384 12.5065C62.0344 12.1915 61.452 12.0244 60.8576 12.0244C60.2632 12.0244 59.6808 12.1915 59.1767 12.5065L49.6624 18.4529ZM53.8091 22.2951C53.6358 22.1795 53.4415 22.0992 53.2372 22.0587C53.0329 22.0183 52.8227 22.0184 52.6184 22.0592C52.4142 22.1 52.22 22.1806 52.0469 22.2964C51.8738 22.4123 51.7253 22.5611 51.6097 22.7343C51.4941 22.9076 51.4138 23.1019 51.3733 23.3062C51.3329 23.5105 51.333 23.7208 51.3738 23.925C51.4562 24.3375 51.699 24.7003 52.0489 24.9337L59.9775 30.2189C60.2381 30.3928 60.5443 30.4855 60.8576 30.4855C61.1708 30.4855 61.4771 30.3928 61.7377 30.2189L69.6662 24.9337C70.0161 24.7003 70.259 24.3375 70.3414 23.925C70.4237 23.5125 70.3389 23.0842 70.1055 22.7343C69.8721 22.3844 69.5092 22.1416 69.0968 22.0592C68.6843 21.9768 68.256 22.0617 67.9061 22.2951L60.8576 26.9936L53.8091 22.2951Z" fill="#B77E2A"/>
</g>
<g filter="url(#filter0_dd_3380_5451)">
<path d="M63.6037 10.1775H67.2611V12.6309H63.6037V16.3159H60.9913V12.6309H57.334V10.1775H60.9913V6.49254H63.6037V10.1775Z" fill="#B77E2A"/>
<path d="M72.7126 17.0952V6.37708H69.3411V4.59714C69.9786 4.59714 70.5536 4.56186 71.0663 4.4913C71.5855 4.42075 72.0521 4.31812 72.4661 4.18342C72.8801 4.04872 73.2482 3.88195 73.5702 3.68311C73.8922 3.48427 74.1814 3.25657 74.4377 3H76.7149V17.0952H72.7126Z" fill="#B77E2A"/>
<path d="M67.7611 10.1775V9.67751H67.2611H64.1037V6.49254V5.99254H63.6037H60.9913H60.4913V6.49254V9.67751H57.334H56.834V10.1775V12.6309V13.1309H57.334H60.4913V16.3159V16.8159H60.9913H63.6037H64.1037V16.3159V13.1309H67.2611H67.7611V12.6309V10.1775ZM72.2126 17.0952V17.5952H72.7126H76.7149H77.2149V17.0952V3V2.5H76.7149H74.4377H74.2305L74.084 2.64663C73.8563 2.87455 73.598 3.07835 73.3075 3.25768C73.024 3.43275 72.6931 3.58377 72.3114 3.70795C71.9309 3.83175 71.4942 3.92855 70.9989 3.99586L70.9981 3.99597C70.5125 4.06281 69.9608 4.09714 69.3411 4.09714H68.8411V4.59714V6.37708V6.87708H69.3411H72.2126V17.0952Z" stroke="url(#paint0_linear_3380_5451)" stroke-opacity="0.2"/>
</g>
<defs>
<filter id="filter0_dd_3380_5451" x="50.334" y="0" width="33.3809" height="28.0957" filterUnits="userSpaceOnUse" color-interpolation-filters="sRGB">
<feFlood flood-opacity="0" result="BackgroundImageFix"/>
<feColorMatrix in="SourceAlpha" type="matrix" values="0 0 0 0 0 0 0 0 0 0 0 0 0 0 0 0 0 0 127 0" result="hardAlpha"/>
<feOffset dy="4"/>
<feGaussianBlur stdDeviation="3"/>
<feColorMatrix type="matrix" values="0 0 0 0 0.121569 0 0 0 0 0.160784 0 0 0 0 0.215686 0 0 0 0.1 0"/>
<feBlend mode="normal" in2="BackgroundImageFix" result="effect1_dropShadow_3380_5451"/>
<feColorMatrix in="SourceAlpha" type="matrix" values="0 0 0 0 0 0 0 0 0 0 0 0 0 0 0 0 0 0 127 0" result="hardAlpha"/>
<feOffset dy="2"/>
<feGaussianBlur stdDeviation="2"/>
<feColorMatrix type="matrix" values="0 0 0 0 0.121569 0 0 0 0 0.160784 0 0 0 0 0.215686 0 0 0 0.06 0"/>
<feBlend mode="normal" in2="effect1_dropShadow_3380_5451" result="effect2_dropShadow_3380_5451"/>
<feBlend mode="normal" in="SourceGraphic" in2="effect2_dropShadow_3380_5451" result="shape"/>
</filter>
<linearGradient id="paint0_linear_3380_5451" x1="57.5288" y1="17.0953" x2="76.7636" y2="17.0953" gradientUnits="userSpaceOnUse">
<stop stop-color="#EAF2F4"/>
<stop offset="0.520833" stop-color="#B77E2A"/>
<stop offset="1" stop-color="#EAF2F4"/>
</linearGradient>
</defs>
</svg>
