<svg width="32" height="32" viewBox="0 0 32 32" fill="none" xmlns="http://www.w3.org/2000/svg">
<path d="M9.33343 21.3335C8.02012 21.335 6.75244 20.8518 5.77326 19.9766C4.79408 19.1014 4.17225 17.8957 4.02691 16.5904C3.88157 15.2852 4.22294 13.9722 4.98561 12.903C5.74828 11.8338 6.87863 11.0837 8.1601 10.7962C7.78933 9.06699 8.12067 7.26131 9.08123 5.7764C10.0418 4.29149 11.5529 3.24897 13.2821 2.8782C15.0113 2.50743 16.817 2.83877 18.3019 3.79933C19.7868 4.75989 20.8293 6.27099 21.2001 8.0002H21.3334C22.9867 7.99854 24.5816 8.61124 25.8085 9.71936C27.0355 10.8275 27.8069 12.352 27.973 13.9969C28.1392 15.6418 27.6882 17.2897 26.7077 18.6208C25.7271 19.9519 24.287 20.8712 22.6668 21.2002M20.0001 17.3335L16.0001 13.3335M16.0001 13.3335L12.0001 17.3335M16.0001 13.3335V29.3335" stroke="#92A9AD" stroke-width="2" stroke-linecap="round" stroke-linejoin="round"/>
</svg>
